# xmcd
#
# Track frame offsets:
#	183
#	24528
#	40588
#	58043
#	73975
#	91305
#	106460
#	126318
#	145943
#	162290
#
# Disc length: 2389 seconds
#
# Revision: 0
# Processed by: cddbd v1.4b41PL3 Copyright (c) Steve Scherf et al.
# Submitted via: EZCDDA 4.3.3.2
#
DISCID=8c09530a
DTITLE=Dyango - Amante Gaviota
DYEAR=1900
DGENRE=
TTITLE0=Alta Marea
TTITLE1=Que Sepas de Mì
TTITLE2=Maite
TTITLE3=Amante gaviota
TTITLE4=Detrás de Tí
TTITLE5=Cuanto Te Quiero
TTITLE6=Mujer de Dos Amigos
TTITLE7=El Piano Suena
TTITLE8=Confidencias
TTITLE9=Será
EXTD=
EXTT0=
EXTT1=
EXTT2=
EXTT3=
EXTT4=
EXTT5=
EXTT6=
EXTT7=
EXTT8=
EXTT9=
PLAYORDER=
